<?xml version="1.0" encoding="UTF-8" standalone="no"?>
<!-- Generator: Adobe Illustrator 19.2.0, SVG Export Plug-In . SVG Version: 6.00 Build 0)  -->

<svg
   xmlns:dc="http://purl.org/dc/elements/1.1/"
   xmlns:cc="http://creativecommons.org/ns#"
   xmlns:rdf="http://www.w3.org/1999/02/22-rdf-syntax-ns#"
   xmlns:svg="http://www.w3.org/2000/svg"
   xmlns="http://www.w3.org/2000/svg"
   xmlns:sodipodi="http://sodipodi.sourceforge.net/DTD/sodipodi-0.dtd"
   xmlns:inkscape="http://www.inkscape.org/namespaces/inkscape"
   version="1.1"
   id="Layer_1"
   x="0px"
   y="0px"
   viewBox="0 0 288.10001 167.7"
   xml:space="preserve"
   inkscape:version="0.91 r13725"
   sodipodi:docname="Q4_White.svg"
   width="288.10001"
   height="167.7"><metadata
     id="metadata15"><rdf:RDF><cc:Work
         rdf:about=""><dc:format>image/svg+xml</dc:format><dc:type
           rdf:resource="http://purl.org/dc/dcmitype/StillImage" /><dc:title></dc:title></cc:Work></rdf:RDF></metadata><defs
     id="defs13" /><sodipodi:namedview
     pagecolor="#ffffff"
     bordercolor="#666666"
     borderopacity="1"
     objecttolerance="10"
     gridtolerance="10"
     guidetolerance="10"
     inkscape:pageopacity="0"
     inkscape:pageshadow="2"
     inkscape:window-width="1167"
     inkscape:window-height="748"
     id="namedview11"
     showgrid="false"
     fit-margin-top="0"
     fit-margin-left="0"
     fit-margin-right="0"
     fit-margin-bottom="0"
     inkscape:zoom="0.65555556"
     inkscape:cx="143.7"
     inkscape:cy="83.6"
     inkscape:window-x="2503"
     inkscape:window-y="234"
     inkscape:window-maximized="0"
     inkscape:current-layer="Layer_1" /><style
     type="text/css"
     id="style3">
	.st0{fill:#125DA5;}
</style><g
     id="g5"
     transform="translate(-36.3,-95.9)"><path
       class="st0"
       d="m 324.3,214.3 0,-10.9 -14.4,0 0,0 0,0 0,-106.6 -14.1,0 -72.5,110.2 0,7.3 67.7,0 0,30.4 -14.4,0 0,10.9 47.8,0 0,-10.9 -14.5,0 0,-30.4 0,0 0,0 14.4,0 z m -33.4,-10.9 -52.3,0 52.3,-81.5 0,81.5 z"
       id="path7"
       inkscape:connector-curvature="0"
       style="fill:#125DA5" /><path
       class="st0"
       d="m 179.2,251.3 c -6.5,0 -12.5,-1.8 -17.5,-4.8 23.7,-14.3 39.6,-40 39.6,-69.4 0,-44.9 -36.9,-81.2 -82.5,-81.2 -45.6,0 -82.5,36.4 -82.5,81.2 0,44.9 36.9,81.2 82.5,81.2 6.5,0 12.8,-0.7 18.9,-2.1 7.6,4.6 17.5,7.4 28.4,7.4 20.1,0 36.9,-9.4 41.5,-22.1 l -4.6,0 c -5.8,6 -14.3,9.8 -23.8,9.8 z m -60,-4.2 c -33.5,0 -60.6,-30.9 -60.6,-69 0,-38.1 27.1,-69 60.6,-69 33.5,0 60.6,30.9 60.6,69 0,38.1 -27.1,69 -60.6,69 z"
       id="path9"
       inkscape:connector-curvature="0"
       style="fill:#125DA5" /></g></svg>